# xmcd
#
# Track frame offsets:
#	150
#	20060
#	34900
#	57999
#	75158
#	94869
#	109063
#	123268
#	136500
#	155158
#	175418
#	188254
#	202515
#	220607
#	238946
#	263551
#	281162
#
# Disc length: 3966 seconds
#
# Revision: 0
# Processed by: cddbd v1.5.2PL0 Copyright (c) Steve Scherf et al.
# Submitted via: EZCDAudioConverter 3.0.3.2
#
DISCID=dd0f7c11
DTITLE=Vivencias del Ecuador - Sentimiento de amor
DYEAR=1900
DGENRE=
TTITLE0=Sentimiento de amor
TTITLE1=Taquirari
TTITLE2=Agonía
TTITLE3=Arack-Pacha
TTITLE4=Flor del camino
TTITLE5=Guitarra
TTITLE6=La mentirosa
TTITLE7=Cotopaxi
TTITLE8=La despedida
TTITLE9=Pituco
TTITLE10=Primer amor
TTITLE11=Vuelo alto
TTITLE12=Vivencias
TTITLE13=Variación Tinku
TTITLE14=Primaveras
TTITLE15=Equador
TTITLE16=Ni idea
EXTD=
EXTT0=
EXTT1=
EXTT2=
EXTT3=
EXTT4=
EXTT5=
EXTT6=
EXTT7=
EXTT8=
EXTT9=
EXTT10=
EXTT11=
EXTT12=
EXTT13=
EXTT14=
EXTT15=
EXTT16=
PLAYORDER=
